0
SECTION
2
HEADER
9
$HANDSEED
5
92
9
$INSUNITS
70
0
9
$ACADVER
1
AC1021
0
ENDSEC
0
SECTION
2
CLASSES
0
ENDSEC
0
SECTION
2
TABLES
0
TABLE
2
LTYPE
5
90
330
0
100
AcDbSymbolTable
70
5
0
LTYPE
5
2
330
90
100
AcDbSymbolTableRecord
100
AcDbLinetypeTableRecord
2
CONTINUOUS
3
______
70
0
72
65
73
0
40
0
0
LTYPE
5
3
330
90
100
AcDbSymbolTableRecord
100
AcDbLinetypeTableRecord
2
DASHED
3
_ _ _ 
70
0
72
65
73
2
40
10
49
5
74
0
49
-5
74
0
0
LTYPE
5
4
330
90
100
AcDbSymbolTableRecord
100
AcDbLinetypeTableRecord
2
DOTTED
3
. . . 
70
0
72
65
73
2
40
5
49
0
74
0
49
-5
74
0
0
LTYPE
5
6
330
90
100
AcDbSymbolTableRecord
100
AcDbLinetypeTableRecord
2
ByBlock
3

70
0
72
65
73
0
40
0
0
LTYPE
5
7
330
90
100
AcDbSymbolTableRecord
100
AcDbLinetypeTableRecord
2
ByLayer
3

70
0
72
65
73
0
40
0
0
ENDTAB
0
TABLE
2
LAYER
5
91
330
0
100
AcDbSymbolTable
70
1
0
LAYER
5
5
330
91
100
AcDbSymbolTableRecord
100
AcDbLayerTableRecord
2
0
62
7
70
0
6
CONTINUOUS
390
1
0
ENDTAB
0
TABLE
2
VPORT
5
8
330
0
100
AcDbSymbolTable
70
1
0
VPORT
5
E
330
8
100
AcDbSymbolTableRecord
100
AcDbViewportTableRecord
2
*ACTIVE
40
1000
70
0
0
ENDTAB
0
TABLE
2
STYLE
5
9
330
0
100
AcDbSymbolTable
70
1
0
STYLE
5
F
330
9
100
AcDbSymbolTableRecord
100
AcDbTextStyleTableRecord
2
standard
70
0
40
0
41
1
50
0
71
0
42
1
3
txt
4

0
ENDTAB
0
TABLE
2
VIEW
5
A
330
0
100
AcDbSymbolTable
70
0
0
ENDTAB
0
TABLE
2
UCS
5
B
330
0
100
AcDbSymbolTable
70
0
0
ENDTAB
0
TABLE
2
APPID
5
C
330
0
100
AcDbSymbolTable
70
1
0
APPID
5
10
330
C
100
AcDbSymbolTableRecord
100
AcDbRegAppTableRecord
2
ACAD
70
0
0
ENDTAB
0
TABLE
2
DIMSTYLE
5
D
330
0
100
AcDbSymbolTable
100
AcDbDimStyleTable
70
0
71
1
0
ENDTAB
0
TABLE
2
BLOCK_RECORD
5
8D
330
0
100
AcDbSymbolTable
70
2
0
BLOCK_RECORD
5
8E
330
8D
100
AcDbSymbolTableRecord
100
AcDbBlockTableRecord
2
*Model_Space
70
0
280
0
281
1
0
BLOCK_RECORD
5
8F
330
8D
100
AcDbSymbolTableRecord
100
AcDbBlockTableRecord
2
*Paper_Space
70
0
280
0
281
1
0
ENDTAB
0
ENDSEC
0
SECTION
2
BLOCKS
0
BLOCK
5
11
330
0
100
AcDbEntity
100
AcDbBlockBegin
2
*Model_Space
70
0
10
0
20
0
30
0
3
*Model_Space
1

0
ENDBLK
5
12
330
0
100
AcDbEntity
100
AcDbBlockEnd
0
BLOCK
5
13
330
0
100
AcDbEntity
100
AcDbBlockBegin
2
*Paper_Space
70
0
10
0
20
0
30
0
3
*Paper_Space
1

0
ENDBLK
5
14
330
0
100
AcDbEntity
100
AcDbBlockEnd
0
ENDSEC
0
SECTION
2
ENTITIES
0
LWPOLYLINE
5
16
330
11
100
AcDbEntity
100
AcDbPolyline
8
0
6
ByLayer
62
256
370
-1
90
4
70
1
10
0
20
0
10
0
20
-3721
10
1280
20
-3721
10
1280
20
0
0
LWPOLYLINE
5
17
330
11
100
AcDbEntity
100
AcDbPolyline
8
0
6
ByLayer
62
256
370
-1
90
4
70
1
10
0
20
0
10
0
20
-80
10
1280
20
-80
10
1280
20
0
0
LWPOLYLINE
5
18
330
11
100
AcDbEntity
100
AcDbPolyline
8
0
6
ByLayer
62
256
370
-1
90
4
70
1
10
1092.265625
20
-10.5
10
1092.265625
20
-68.5
10
1232
20
-68.5
10
1232
20
-10.5
0
LWPOLYLINE
5
19
330
11
100
AcDbEntity
100
AcDbPolyline
8
0
6
ByLayer
62
256
370
-1
90
4
70
1
10
1170
20
-18.5
10
1170
20
-60.5
10
1212
20
-60.5
10
1212
20
-18.5
0
LWPOLYLINE
5
1A
330
11
100
AcDbEntity
100
AcDbPolyline
8
0
6
ByLayer
62
256
370
-1
90
4
70
1
10
1170
20
-18.5
10
1170
20
-60.5
10
1212
20
-60.5
10
1212
20
-18.5
0
LWPOLYLINE
5
1B
330
11
100
AcDbEntity
100
AcDbPolyline
8
0
6
ByLayer
62
256
370
-1
90
4
70
1
10
818.90625
20
-21.5
10
818.90625
20
-57.5
10
929
20
-57.5
10
929
20
-21.5
0
LWPOLYLINE
5
1C
330
11
100
AcDbEntity
100
AcDbPolyline
8
0
6
ByLayer
62
256
370
-1
90
4
70
1
10
818.90625
20
-21.5
10
818.90625
20
-57.5
10
929
20
-57.5
10
929
20
-21.5
0
LWPOLYLINE
5
1D
330
11
100
AcDbEntity
100
AcDbPolyline
8
0
6
ByLayer
62
256
370
-1
90
4
70
1
10
871.953125
20
-57.5
10
871.953125
20
-61.5
10
875.953125
20
-61.5
10
875.953125
20
-57.5
0
LWPOLYLINE
5
1E
330
11
100
AcDbEntity
100
AcDbPolyline
8
0
6
ByLayer
62
256
370
-1
90
4
70
1
10
727.984375
20
-21.5
10
727.984375
20
-57.5
10
810.90625
20
-57.5
10
810.90625
20
-21.5
0
LWPOLYLINE
5
1F
330
11
100
AcDbEntity
100
AcDbPolyline
8
0
6
ByLayer
62
256
370
-1
90
4
70
1
10
637.4375
20
-21.5
10
637.4375
20
-57.5
10
719.984375
20
-57.5
10
719.984375
20
-21.5
0
LWPOLYLINE
5
20
330
11
100
AcDbEntity
100
AcDbPolyline
8
0
6
ByLayer
62
256
370
-1
90
4
70
1
10
551.546875
20
-21.5
10
551.546875
20
-57.5
10
629.4375
20
-57.5
10
629.4375
20
-21.5
0
LWPOLYLINE
5
21
330
11
100
AcDbEntity
100
AcDbPolyline
8
0
6
ByLayer
62
256
370
-1
90
4
70
1
10
432.609375
20
-21.5
10
432.609375
20
-57.5
10
543.546875
20
-57.5
10
543.546875
20
-21.5
0
LWPOLYLINE
5
22
330
11
100
AcDbEntity
100
AcDbPolyline
8
0
6
ByLayer
62
256
370
-1
90
4
70
1
10
48
20
-21.5
10
48
20
-57.5
10
269.34375
20
-57.5
10
269.34375
20
-21.5
0
LWPOLYLINE
5
23
330
11
100
AcDbEntity
100
AcDbPolyline
8
0
6
ByLayer
62
256
370
-1
90
4
70
1
10
229.34375
20
-21.5
10
229.34375
20
-57.5
10
269.34375
20
-57.5
10
269.34375
20
-21.5
0
LWPOLYLINE
5
24
330
11
100
AcDbEntity
100
AcDbPolyline
8
0
6
ByLayer
62
256
370
-1
90
4
70
1
10
48
20
-21.5
10
48
20
-57.5
10
205.34375
20
-57.5
10
205.34375
20
-21.5
0
LWPOLYLINE
5
25
330
11
100
AcDbEntity
100
AcDbPolyline
8
0
6
ByLayer
62
256
370
-1
90
4
70
1
10
48
20
-21.5
10
48
20
-57.5
10
205.34375
20
-57.5
10
205.34375
20
-21.5
0
LWPOLYLINE
5
26
330
11
100
AcDbEntity
100
AcDbPolyline
8
0
6
ByLayer
62
256
370
-1
90
4
70
1
10
48
20
-21.5
10
48
20
-57.5
10
205.34375
20
-57.5
10
205.34375
20
-21.5
0
LWPOLYLINE
5
27
330
11
100
AcDbEntity
100
AcDbPolyline
8
0
6
ByLayer
62
256
370
-1
90
4
70
1
10
0
20
0
10
0
20
-6364.546875
10
1280
20
-6364.546875
10
1280
20
0
0
LWPOLYLINE
5
28
330
11
100
AcDbEntity
100
AcDbPolyline
8
0
6
ByLayer
62
256
370
-1
90
4
70
1
10
0
20
0
10
0
20
-3721
10
1280
20
-3721
10
1280
20
0
0
LWPOLYLINE
5
29
330
11
100
AcDbEntity
100
AcDbPolyline
8
0
6
ByLayer
62
256
370
-1
90
4
70
1
10
0
20
0
10
0
20
-3721
10
1280
20
-3721
10
1280
20
0
0
LWPOLYLINE
5
2A
330
11
100
AcDbEntity
100
AcDbPolyline
8
0
6
ByLayer
62
256
370
-1
90
4
70
1
10
0
20
0
10
0
20
-3721
10
1280
20
-3721
10
1280
20
0
0
LWPOLYLINE
5
2B
330
11
100
AcDbEntity
100
AcDbPolyline
8
0
6
ByLayer
62
256
370
-1
90
4
70
1
10
-640
20
1860.5
10
-640
20
-5581.5
10
1920
20
-5581.5
10
1920
20
1860.5
0
LWPOLYLINE
5
2C
330
11
100
AcDbEntity
100
AcDbPolyline
8
0
6
ByLayer
62
256
370
-1
90
4
70
1
10
256
20
-1627.8011474609375
10
256
20
-2265.1103515625
10
893.30908203125
20
-2265.1103515625
10
893.30908203125
20
-1627.8011474609375
0
LWPOLYLINE
5
2D
330
11
100
AcDbEntity
100
AcDbPolyline
8
0
6
ByLayer
62
256
370
-1
90
4
70
1
10
0
20
0
10
0
20
-3721
10
1280
20
-3721
10
1280
20
0
0
LWPOLYLINE
5
2E
330
11
100
AcDbEntity
100
AcDbPolyline
8
0
6
ByLayer
62
256
370
-1
90
4
70
1
10
-640
20
1860.5
10
-640
20
-5581.5
10
1920
20
-5581.5
10
1920
20
1860.5
0
LWPOLYLINE
5
2F
330
11
100
AcDbEntity
100
AcDbPolyline
8
0
6
ByLayer
62
256
370
-1
90
4
70
1
10
-205.5172119140625
20
-3802.12451171875
10
-205.5172119140625
20
-4837.296875
10
829.655029296875
20
-4837.296875
10
829.655029296875
20
-3802.12451171875
0
LWPOLYLINE
5
30
330
11
100
AcDbEntity
100
AcDbPolyline
8
0
6
ByLayer
62
256
370
-1
90
4
70
1
10
0
20
0
10
0
20
-3721
10
1280
20
-3721
10
1280
20
0
0
LWPOLYLINE
5
31
330
11
100
AcDbEntity
100
AcDbPolyline
8
0
6
ByLayer
62
256
370
-1
90
4
70
1
10
-640
20
1860.5
10
-640
20
-5581.5
10
1920
20
-5581.5
10
1920
20
1860.5
0
LWPOLYLINE
5
32
330
11
100
AcDbEntity
100
AcDbPolyline
8
0
6
ByLayer
62
256
370
-1
90
4
70
1
10
139.1810302734375
20
-1132.5517578125
10
139.1810302734375
20
-1382.117431640625
10
1140.8189697265625
20
-1382.117431640625
10
1140.8189697265625
20
-1132.5517578125
0
LWPOLYLINE
5
33
330
11
100
AcDbEntity
100
AcDbPolyline
8
0
6
ByLayer
62
256
370
-1
90
4
70
1
10
502.3265075683594
20
740.273681640625
10
502.3265075683594
20
-177.14129638671875
10
1419.7414245605469
20
-177.14129638671875
10
1419.7414245605469
20
740.273681640625
0
LWPOLYLINE
5
34
330
11
100
AcDbEntity
100
AcDbPolyline
8
0
6
ByLayer
62
256
370
-1
90
4
70
1
10
0
20
0
10
0
20
-3721
10
1280
20
-3721
10
1280
20
0
0
LWPOLYLINE
5
35
330
11
100
AcDbEntity
100
AcDbPolyline
8
0
6
ByLayer
62
256
370
-1
90
4
70
1
10
0
20
0
10
0
20
-3721
10
1280
20
-3721
10
1280
20
0
0
LWPOLYLINE
5
36
330
11
100
AcDbEntity
100
AcDbPolyline
8
0
6
ByLayer
62
256
370
-1
90
4
70
1
10
0
20
0
10
0
20
-3721
10
1280
20
-3721
10
1280
20
0
0
LWPOLYLINE
5
37
330
11
100
AcDbEntity
100
AcDbPolyline
8
0
6
ByLayer
62
256
370
-1
90
4
70
1
10
0
20
-1321.578125
10
0
20
-2399.40625
10
1280
20
-2399.40625
10
1280
20
-1321.578125
0
LWPOLYLINE
5
38
330
11
100
AcDbEntity
100
AcDbPolyline
8
0
6
ByLayer
62
256
370
-1
90
4
70
1
10
648
20
-1433.578125
10
648
20
-2303.40625
10
1248
20
-2303.40625
10
1248
20
-1433.578125
0
LWPOLYLINE
5
39
330
11
100
AcDbEntity
100
AcDbPolyline
8
0
6
ByLayer
62
256
370
-1
90
4
70
1
10
648
20
-1433.578125
10
648
20
-1468.078125
10
1248
20
-1468.078125
10
1248
20
-1433.578125
0
LWPOLYLINE
5
3A
330
11
100
AcDbEntity
100
AcDbPolyline
8
0
6
ByLayer
62
256
370
-1
90
4
70
1
10
879.71875
20
-1433.578125
10
879.71875
20
-1468.078125
10
1069.546875
20
-1468.078125
10
1069.546875
20
-1433.578125
0
LWPOLYLINE
5
3B
330
11
100
AcDbEntity
100
AcDbPolyline
8
0
6
ByLayer
62
256
370
-1
90
4
70
1
10
648
20
-1492.078125
10
648
20
-1940.484375
10
1248
20
-1940.484375
10
1248
20
-1492.078125
0
LWPOLYLINE
5
3C
330
11
100
AcDbEntity
100
AcDbPolyline
8
0
6
ByLayer
62
256
370
-1
90
4
70
1
10
648
20
-2104.65625
10
648
20
-2178.90625
10
1248
20
-2178.90625
10
1248
20
-2104.65625
0
LWPOLYLINE
5
3D
330
11
100
AcDbEntity
100
AcDbPolyline
8
0
6
ByLayer
62
256
370
-1
90
4
70
1
10
828
20
-2104.65625
10
828
20
-2157.15625
10
1248
20
-2157.15625
10
1248
20
-2104.65625
0
LWPOLYLINE
5
3E
330
11
100
AcDbEntity
100
AcDbPolyline
8
0
6
ByLayer
62
256
370
-1
90
4
70
1
10
648
20
-2202.90625
10
648
20
-2244.90625
10
1248
20
-2244.90625
10
1248
20
-2202.90625
0
LWPOLYLINE
5
3F
330
11
100
AcDbEntity
100
AcDbPolyline
8
0
6
ByLayer
62
256
370
-1
90
4
70
1
10
1028.9375
20
-2202.90625
10
1028.9375
20
-2244.90625
10
1248
20
-2244.90625
10
1248
20
-2202.90625
0
LWPOLYLINE
5
40
330
11
100
AcDbEntity
100
AcDbPolyline
8
0
6
ByLayer
62
256
370
-1
90
4
70
1
10
859.796875
20
-2204.09375
10
859.796875
20
-2243.703125
10
1016.9375
20
-2243.703125
10
1016.9375
20
-2204.09375
0
LWPOLYLINE
5
41
330
11
100
AcDbEntity
100
AcDbPolyline
8
0
6
ByLayer
62
256
370
-1
90
4
70
1
10
648
20
-2268.90625
10
648
20
-2303.40625
10
1248
20
-2303.40625
10
1248
20
-2268.90625
0
LWPOLYLINE
5
42
330
11
100
AcDbEntity
100
AcDbPolyline
8
0
6
ByLayer
62
256
370
-1
90
4
70
1
10
32
20
-1580.484375
10
32
20
-2156.484375
10
552
20
-2156.484375
10
552
20
-1580.484375
0
LWPOLYLINE
5
43
330
11
100
AcDbEntity
100
AcDbPolyline
8
0
6
ByLayer
62
256
370
-1
90
4
70
1
10
32
20
-1580.484375
10
32
20
-2100.484375
10
552
20
-2100.484375
10
552
20
-1580.484375
0
LWPOLYLINE
5
44
330
11
100
AcDbEntity
100
AcDbPolyline
8
0
6
ByLayer
62
256
370
-1
90
4
70
1
10
-61.59375
20
-1486.890625
10
-61.59375
20
-2194.078125
10
645.59375
20
-2194.078125
10
645.59375
20
-1486.890625
0
LWPOLYLINE
5
45
330
11
100
AcDbEntity
100
AcDbPolyline
8
0
6
ByLayer
62
256
370
-1
90
4
70
1
10
463.59375
20
-1620.078125
10
463.59375
20
-1723.078125
10
593.59375
20
-1723.078125
10
593.59375
20
-1620.078125
0
LWPOLYLINE
5
46
330
11
100
AcDbEntity
100
AcDbPolyline
8
0
6
ByLayer
62
256
370
-1
90
4
70
1
10
484.59375
20
-1656.078125
10
484.59375
20
-1695.078125
10
572.59375
20
-1695.078125
10
572.59375
20
-1656.078125
0
LWPOLYLINE
5
47
330
11
100
AcDbEntity
100
AcDbPolyline
8
0
6
ByLayer
62
256
370
-1
90
4
70
1
10
484.59375
20
-1703.078125
10
484.59375
20
-1706.078125
10
572.59375
20
-1706.078125
10
572.59375
20
-1703.078125
0
LWPOLYLINE
5
48
330
11
100
AcDbEntity
100
AcDbPolyline
8
0
6
ByLayer
62
256
370
-1
90
4
70
1
10
503.96875
20
-1703.078125
10
503.96875
20
-1706.078125
10
572.59375
20
-1706.078125
10
572.59375
20
-1703.078125
0
LWPOLYLINE
5
49
330
11
100
AcDbEntity
100
AcDbPolyline
8
0
6
ByLayer
62
256
370
-1
90
4
70
1
10
-20
20
-1935.09375
10
-20
20
-2037.09375
10
124.859375
20
-2037.09375
10
124.859375
20
-1935.09375
0
LWPOLYLINE
5
4A
330
11
100
AcDbEntity
100
AcDbPolyline
8
0
6
ByLayer
62
256
370
-1
90
4
70
1
10
1
20
-1971.09375
10
1
20
-2004.09375
10
103.859375
20
-2004.09375
10
103.859375
20
-1971.09375
0
LWPOLYLINE
5
4B
330
11
100
AcDbEntity
100
AcDbPolyline
8
0
6
ByLayer
62
256
370
-1
90
4
70
1
10
1
20
-2012.09375
10
1
20
-2020.09375
10
103.859375
20
-2020.09375
10
103.859375
20
-2012.09375
0
LWPOLYLINE
5
4C
330
11
100
AcDbEntity
100
AcDbPolyline
8
0
6
ByLayer
62
256
370
-1
90
4
70
1
10
95.859375
20
-2012.09375
10
95.859375
20
-2020.09375
10
103.859375
20
-2020.09375
10
103.859375
20
-2012.09375
0
LWPOLYLINE
5
4D
330
11
100
AcDbEntity
100
AcDbPolyline
8
0
6
ByLayer
62
256
370
-1
90
4
70
1
10
83.859375
20
-2012.09375
10
83.859375
20
-2020.09375
10
91.859375
20
-2020.09375
10
91.859375
20
-2012.09375
0
LWPOLYLINE
5
4E
330
11
100
AcDbEntity
100
AcDbPolyline
8
0
6
ByLayer
62
256
370
-1
90
4
70
1
10
71.859375
20
-2012.09375
10
71.859375
20
-2020.09375
10
79.859375
20
-2020.09375
10
79.859375
20
-2012.09375
0
LWPOLYLINE
5
4F
330
11
100
AcDbEntity
100
AcDbPolyline
8
0
6
ByLayer
62
256
370
-1
90
4
70
1
10
197.5390625
20
-2125.484375
10
197.5390625
20
-2140.484375
10
386.4609375
20
-2140.484375
10
386.4609375
20
-2125.484375
0
LWPOLYLINE
5
50
330
11
100
AcDbEntity
100
AcDbPolyline
8
0
6
ByLayer
62
256
370
-1
90
4
70
1
10
329.3984375
20
-2125.484375
10
329.3984375
20
-2140.484375
10
386.4609375
20
-2140.484375
10
386.4609375
20
-2125.484375
0
LWPOLYLINE
5
51
330
11
100
AcDbEntity
100
AcDbPolyline
8
0
6
ByLayer
62
256
370
-1
90
4
70
1
10
269.3984375
20
-2125.484375
10
269.3984375
20
-2140.484375
10
309.3984375
20
-2140.484375
10
309.3984375
20
-2125.484375
0
LWPOLYLINE
5
52
330
11
100
AcDbEntity
100
AcDbPolyline
8
0
6
ByLayer
62
256
370
-1
90
4
70
1
10
197.5390625
20
-2125.484375
10
197.5390625
20
-2140.484375
10
249.3984375
20
-2140.484375
10
249.3984375
20
-2125.484375
0
LWPOLYLINE
5
53
330
11
100
AcDbEntity
100
AcDbPolyline
8
0
6
ByLayer
62
256
370
-1
90
4
70
1
10
0
20
-3561
10
0
20
-3721
10
1280
20
-3721
10
1280
20
-3561
0
LWPOLYLINE
5
54
330
11
100
AcDbEntity
100
AcDbPolyline
8
0
6
ByLayer
62
256
370
-1
90
4
70
1
10
128
20
-3721
10
128
20
-4611.265625
10
1152
20
-4611.265625
10
1152
20
-3721
0
LWPOLYLINE
5
55
330
11
100
AcDbEntity
100
AcDbPolyline
8
0
6
ByLayer
62
256
370
-1
90
4
70
1
10
153.91998291015625
20
-3839.66259765625
10
153.91998291015625
20
-4492.60302734375
10
1126.080078125
20
-4492.60302734375
10
1126.080078125
20
-3839.66259765625
0
LWPOLYLINE
5
56
330
11
100
AcDbEntity
100
AcDbPolyline
8
0
6
ByLayer
62
256
370
-1
90
4
70
1
10
232.31997680664062
20
-3918.062744140625
10
232.31997680664062
20
-4171.65283203125
10
1047.6799621582031
20
-4171.65283203125
10
1047.6799621582031
20
-3918.062744140625
0
LWPOLYLINE
5
57
330
11
100
AcDbEntity
100
AcDbPolyline
8
0
6
ByLayer
62
256
370
-1
90
4
70
1
10
232.31997680664062
20
-3949.422607421875
10
232.31997680664062
20
-4052.904541015625
10
1047.6799621582031
20
-4052.904541015625
10
1047.6799621582031
20
-3949.422607421875
0
LWPOLYLINE
5
58
330
11
100
AcDbEntity
100
AcDbPolyline
8
0
6
ByLayer
62
256
370
-1
90
4
70
1
10
232.31997680664062
20
-4218.69287109375
10
232.31997680664062
20
-4414.203125
10
1047.6799621582031
20
-4414.203125
10
1047.6799621582031
20
-4218.69287109375
0
LWPOLYLINE
5
59
330
11
100
AcDbEntity
100
AcDbPolyline
8
0
6
ByLayer
62
256
370
-1
90
4
70
1
10
791.5784301757812
20
-4238.29296875
10
791.5784301757812
20
-4433.802734375
10
1047.679931640625
20
-4433.802734375
10
1047.679931640625
20
-4238.29296875
0
LWPOLYLINE
5
5A
330
11
100
AcDbEntity
100
AcDbPolyline
8
0
6
ByLayer
62
256
370
-1
90
4
70
1
10
823.91845703125
20
-4270.6328125
10
823.91845703125
20
-4305.9130859375
10
1015.3400268554688
20
-4305.9130859375
10
1015.3400268554688
20
-4270.6328125
0
LWPOLYLINE
5
5B
330
11
100
AcDbEntity
100
AcDbPolyline
8
0
6
ByLayer
62
256
370
-1
90
4
70
1
10
823.91845703125
20
-4321.5927734375
10
823.91845703125
20
-4349.033203125
10
1015.3400268554688
20
-4349.033203125
10
1015.3400268554688
20
-4321.5927734375
0
LWPOLYLINE
5
5C
330
11
100
AcDbEntity
100
AcDbPolyline
8
0
6
ByLayer
62
256
370
-1
90
4
70
1
10
511.9568786621094
20
-4238.29296875
10
511.9568786621094
20
-4433.802734375
10
768.0584106445312
20
-4433.802734375
10
768.0584106445312
20
-4238.29296875
0
LWPOLYLINE
5
5D
330
11
100
AcDbEntity
100
AcDbPolyline
8
0
6
ByLayer
62
256
370
-1
90
4
70
1
10
544.296875
20
-4270.6328125
10
544.296875
20
-4305.9130859375
10
735.7184448242188
20
-4305.9130859375
10
735.7184448242188
20
-4270.6328125
0
LWPOLYLINE
5
5E
330
11
100
AcDbEntity
100
AcDbPolyline
8
0
6
ByLayer
62
256
370
-1
90
4
70
1
10
544.296875
20
-4321.5927734375
10
544.296875
20
-4349.033203125
10
735.7184448242188
20
-4349.033203125
10
735.7184448242188
20
-4321.5927734375
0
LWPOLYLINE
5
5F
330
11
100
AcDbEntity
100
AcDbPolyline
8
0
6
ByLayer
62
256
370
-1
90
4
70
1
10
232.31997680664062
20
-4238.29296875
10
232.31997680664062
20
-4433.802734375
10
488.4368591308594
20
-4433.802734375
10
488.4368591308594
20
-4238.29296875
0
LWPOLYLINE
5
60
330
11
100
AcDbEntity
100
AcDbPolyline
8
0
6
ByLayer
62
256
370
-1
90
4
70
1
10
264.65997314453125
20
-4270.6328125
10
264.65997314453125
20
-4305.9130859375
10
456.09686279296875
20
-4305.9130859375
10
456.09686279296875
20
-4270.6328125
0
LWPOLYLINE
5
61
330
11
100
AcDbEntity
100
AcDbPolyline
8
0
6
ByLayer
62
256
370
-1
90
4
70
1
10
264.65997314453125
20
-4321.5927734375
10
264.65997314453125
20
-4349.033203125
10
456.09686279296875
20
-4349.033203125
10
456.09686279296875
20
-4321.5927734375
0
LWPOLYLINE
5
62
330
11
100
AcDbEntity
100
AcDbPolyline
8
0
6
ByLayer
62
256
370
-1
90
4
70
1
10
256
20
-4611.265625
10
256
20
-5437.265625
10
1024
20
-5437.265625
10
1024
20
-4611.265625
0
LWPOLYLINE
5
63
330
11
100
AcDbEntity
100
AcDbPolyline
8
0
6
ByLayer
62
256
370
-1
90
4
70
1
10
272
20
-4721.265625
10
272
20
-5387.265625
10
1008
20
-5387.265625
10
1008
20
-4721.265625
0
LWPOLYLINE
5
64
330
11
100
AcDbEntity
100
AcDbPolyline
8
0
6
ByLayer
62
256
370
-1
90
4
70
1
10
272
20
-4721.265625
10
272
20
-4849.265625
10
1008
20
-4849.265625
10
1008
20
-4721.265625
0
LWPOLYLINE
5
65
330
11
100
AcDbEntity
100
AcDbPolyline
8
0
6
ByLayer
62
256
370
-1
90
4
70
1
10
272
20
-4749.265625
10
272
20
-4789.265625
10
1008
20
-4789.265625
10
1008
20
-4749.265625
0
LWPOLYLINE
5
66
330
11
100
AcDbEntity
100
AcDbPolyline
8
0
6
ByLayer
62
256
370
-1
90
4
70
1
10
384
20
-4881.265625
10
384
20
-5301.265625
10
896
20
-5301.265625
10
896
20
-4881.265625
0
LWPOLYLINE
5
67
330
11
100
AcDbEntity
100
AcDbPolyline
8
0
6
ByLayer
62
256
370
-1
90
4
70
1
10
304
20
-4801.265625
10
304
20
-5381.265625
10
976
20
-5381.265625
10
976
20
-4801.265625
0
LWPOLYLINE
5
68
330
11
100
AcDbEntity
100
AcDbPolyline
8
0
6
ByLayer
62
256
370
-1
90
4
70
1
10
384
20
-4881.265625
10
384
20
-5301.265625
10
896
20
-5301.265625
10
896
20
-4881.265625
0
LWPOLYLINE
5
69
330
11
100
AcDbEntity
100
AcDbPolyline
8
0
6
ByLayer
62
256
370
-1
90
4
70
1
10
432
20
-4932.265625
10
432
20
-5250.265625
10
848
20
-5250.265625
10
848
20
-4932.265625
0
LWPOLYLINE
5
6A
330
11
100
AcDbEntity
100
AcDbPolyline
8
0
6
ByLayer
62
256
370
-1
90
4
70
1
10
603
20
-4932.265625
10
603
20
-5006.265625
10
677
20
-5006.265625
10
677
20
-4932.265625
0
LWPOLYLINE
5
6B
330
11
100
AcDbEntity
100
AcDbPolyline
8
0
6
ByLayer
62
256
370
-1
90
4
70
1
10
534.96875
20
-5030.265625
10
534.96875
20
-5066.265625
10
745.046875
20
-5066.265625
10
745.046875
20
-5030.265625
0
LWPOLYLINE
5
6C
330
11
100
AcDbEntity
100
AcDbPolyline
8
0
6
ByLayer
62
256
370
-1
90
4
70
1
10
566.890625
20
-5212.265625
10
566.890625
20
-5250.265625
10
713.109375
20
-5250.265625
10
713.109375
20
-5212.265625
0
LWPOLYLINE
5
6D
330
11
100
AcDbEntity
100
AcDbPolyline
8
0
6
ByLayer
62
256
370
-1
90
4
70
1
10
567.890625
20
-5213.265625
10
567.890625
20
-5249.265625
10
712.109375
20
-5249.265625
10
712.109375
20
-5213.265625
0
LWPOLYLINE
5
6E
330
11
100
AcDbEntity
100
AcDbPolyline
8
0
6
ByLayer
62
256
370
-1
90
4
70
1
10
272
20
-5341.265625
10
272
20
-5387.265625
10
1008
20
-5387.265625
10
1008
20
-5341.265625
0
LWPOLYLINE
5
6F
330
11
100
AcDbEntity
100
AcDbPolyline
8
0
6
ByLayer
62
256
370
-1
90
4
70
1
10
534.125
20
-5341.265625
10
534.125
20
-5387.265625
10
745.890625
20
-5387.265625
10
745.890625
20
-5341.265625
0
LWPOLYLINE
5
70
330
11
100
AcDbEntity
100
AcDbPolyline
8
0
6
ByLayer
62
256
370
-1
90
4
70
1
10
256
20
-5437.265625
10
256
20
-6015.265625
10
1024
20
-6015.265625
10
1024
20
-5437.265625
0
LWPOLYLINE
5
71
330
11
100
AcDbEntity
100
AcDbPolyline
8
0
6
ByLayer
62
256
370
-1
90
4
70
1
10
276
20
-5517.265625
10
276
20
-5935.265625
10
1004
20
-5935.265625
10
1004
20
-5517.265625
0
LWPOLYLINE
5
72
330
11
100
AcDbEntity
100
AcDbPolyline
8
0
6
ByLayer
62
256
370
-1
90
4
70
1
10
333
20
-5602.265625
10
333
20
-5642.265625
10
947
20
-5642.265625
10
947
20
-5602.265625
0
LWPOLYLINE
5
73
330
11
100
AcDbEntity
100
AcDbPolyline
8
0
6
ByLayer
62
256
370
-1
90
4
70
1
10
333
20
-5662.265625
10
333
20
-5698.265625
10
947
20
-5698.265625
10
947
20
-5662.265625
0
LWPOLYLINE
5
74
330
11
100
AcDbEntity
100
AcDbPolyline
8
0
6
ByLayer
62
256
370
-1
90
4
70
1
10
333
20
-5774.265625
10
333
20
-5804.265625
10
947
20
-5804.265625
10
947
20
-5774.265625
0
LWPOLYLINE
5
75
330
11
100
AcDbEntity
100
AcDbPolyline
8
0
6
ByLayer
62
256
370
-1
90
4
70
1
10
536.09375
20
-5864.265625
10
536.09375
20
-5906.265625
10
743.890625
20
-5906.265625
10
743.890625
20
-5864.265625
0
LWPOLYLINE
5
76
330
11
100
AcDbEntity
100
AcDbPolyline
8
0
6
ByLayer
62
256
370
-1
90
4
70
1
10
0
20
-6048.265625
10
0
20
-6364.546875
10
1280
20
-6364.546875
10
1280
20
-6048.265625
0
LWPOLYLINE
5
77
330
11
100
AcDbEntity
100
AcDbPolyline
8
0
6
ByLayer
62
256
370
-1
90
4
70
1
10
869.796875
20
-6048.265625
10
869.796875
20
-6068.265625
10
942.890625
20
-6068.265625
10
942.890625
20
-6048.265625
0
LWPOLYLINE
5
78
330
11
100
AcDbEntity
100
AcDbPolyline
8
0
6
ByLayer
62
256
370
-1
90
4
70
1
10
792.65625
20
-6048.265625
10
792.65625
20
-6068.265625
10
845.796875
20
-6068.265625
10
845.796875
20
-6048.265625
0
LWPOLYLINE
5
79
330
11
100
AcDbEntity
100
AcDbPolyline
8
0
6
ByLayer
62
256
370
-1
90
4
70
1
10
666.296875
20
-6048.265625
10
666.296875
20
-6068.265625
10
768.65625
20
-6068.265625
10
768.65625
20
-6048.265625
0
LWPOLYLINE
5
7A
330
11
100
AcDbEntity
100
AcDbPolyline
8
0
6
ByLayer
62
256
370
-1
90
4
70
1
10
548.40625
20
-6048.265625
10
548.40625
20
-6068.265625
10
642.296875
20
-6068.265625
10
642.296875
20
-6048.265625
0
LWPOLYLINE
5
7B
330
11
100
AcDbEntity
100
AcDbPolyline
8
0
6
ByLayer
62
256
370
-1
90
4
70
1
10
427.203125
20
-6048.265625
10
427.203125
20
-6068.265625
10
524.40625
20
-6068.265625
10
524.40625
20
-6048.265625
0
LWPOLYLINE
5
7C
330
11
100
AcDbEntity
100
AcDbPolyline
8
0
6
ByLayer
62
256
370
-1
90
4
70
1
10
337.109375
20
-6048.265625
10
337.109375
20
-6068.265625
10
403.203125
20
-6068.265625
10
403.203125
20
-6048.265625
0
LWPOLYLINE
5
7D
330
11
100
AcDbEntity
100
AcDbPolyline
8
0
6
ByLayer
62
256
370
-1
90
4
70
1
10
525.875
20
-6088.265625
10
525.875
20
-6224.546875
10
754.125
20
-6224.546875
10
754.125
20
-6088.265625
0
LWPOLYLINE
5
7E
330
11
100
AcDbEntity
100
AcDbPolyline
8
0
6
ByLayer
62
256
370
-1
90
4
70
1
10
550.875
20
-6131.546875
10
550.875
20
-6207.546875
10
729.125
20
-6207.546875
10
729.125
20
-6131.546875
0
LWPOLYLINE
5
7F
330
11
100
AcDbEntity
100
AcDbPolyline
8
0
6
ByLayer
62
256
370
-1
90
4
70
1
10
514
20
-6252.546875
10
514
20
-6284.546875
10
766
20
-6284.546875
10
766
20
-6252.546875
0
LWPOLYLINE
5
80
330
11
100
AcDbEntity
100
AcDbPolyline
8
0
6
ByLayer
62
256
370
-1
90
4
70
1
10
734
20
-6252.546875
10
734
20
-6284.546875
10
766
20
-6284.546875
10
766
20
-6252.546875
0
LWPOLYLINE
5
81
330
11
100
AcDbEntity
100
AcDbPolyline
8
0
6
ByLayer
62
256
370
-1
90
4
70
1
10
690
20
-6252.546875
10
690
20
-6284.546875
10
722
20
-6284.546875
10
722
20
-6252.546875
0
LWPOLYLINE
5
82
330
11
100
AcDbEntity
100
AcDbPolyline
8
0
6
ByLayer
62
256
370
-1
90
4
70
1
10
646
20
-6252.546875
10
646
20
-6284.546875
10
678
20
-6284.546875
10
678
20
-6252.546875
0
LWPOLYLINE
5
83
330
11
100
AcDbEntity
100
AcDbPolyline
8
0
6
ByLayer
62
256
370
-1
90
4
70
1
10
602
20
-6252.546875
10
602
20
-6284.546875
10
634
20
-6284.546875
10
634
20
-6252.546875
0
LWPOLYLINE
5
84
330
11
100
AcDbEntity
100
AcDbPolyline
8
0
6
ByLayer
62
256
370
-1
90
4
70
1
10
558
20
-6252.546875
10
558
20
-6284.546875
10
590
20
-6284.546875
10
590
20
-6252.546875
0
LWPOLYLINE
5
85
330
11
100
AcDbEntity
100
AcDbPolyline
8
0
6
ByLayer
62
256
370
-1
90
4
70
1
10
514
20
-6252.546875
10
514
20
-6284.546875
10
546
20
-6284.546875
10
546
20
-6252.546875
0
LWPOLYLINE
5
86
330
11
100
AcDbEntity
100
AcDbPolyline
8
0
6
ByLayer
62
256
370
-1
90
4
70
1
10
288
20
-3610.25
10
288
20
-3705
10
992
20
-3705
10
992
20
-3610.25
0
LWPOLYLINE
5
87
330
11
100
AcDbEntity
100
AcDbPolyline
8
0
6
ByLayer
62
256
370
-1
90
4
70
1
10
296
20
-3610.25
10
296
20
-3705
10
984
20
-3705
10
984
20
-3610.25
0
LWPOLYLINE
5
88
330
11
100
AcDbEntity
100
AcDbPolyline
8
0
6
ByLayer
62
256
370
-1
90
4
70
1
10
309
20
-3623.25
10
309
20
-3646
10
971
20
-3646
10
971
20
-3623.25
0
LWPOLYLINE
5
89
330
11
100
AcDbEntity
100
AcDbPolyline
8
0
6
ByLayer
62
256
370
-1
90
4
70
1
10
309
20
-3654
10
309
20
-3692
10
971
20
-3692
10
971
20
-3654
0
LWPOLYLINE
5
8A
330
11
100
AcDbEntity
100
AcDbPolyline
8
0
6
ByLayer
62
256
370
-1
90
4
70
1
10
529.125
20
-3655
10
529.125
20
-3691
10
637.34375
20
-3691
10
637.34375
20
-3655
0
LWPOLYLINE
5
8B
330
11
100
AcDbEntity
100
AcDbPolyline
8
0
6
ByLayer
62
256
370
-1
90
4
70
1
10
430.828125
20
-3654
10
430.828125
20
-3692
10
521.125
20
-3692
10
521.125
20
-3654
0
LWPOLYLINE
5
8C
330
11
100
AcDbEntity
100
AcDbPolyline
8
0
6
ByLayer
62
256
370
-1
90
4
70
1
10
309
20
-3654
10
309
20
-3692
10
422.828125
20
-3692
10
422.828125
20
-3654
0
ENDSEC
0
SECTION
2
OBJECTS
0
DICTIONARY
5
1
330
0
100
AcDbDictionary
281
1
3
ACAD_GROUP
350
15
0
DICTIONARY
5
15
330
1
100
AcDbDictionary
281
1
0
ENDSEC
0
EOF