<svg width="360" height="96" viewBox="0 0 360 96" fill="none" xmlns="http://www.w3.org/2000/svg">
  <defs>
    <linearGradient id="pp-main" x1="0" y1="0" x2="1" y2="1">
      <stop offset="0%" stop-color="#22D3EE"/>
      <stop offset="100%" stop-color="#14B8A6"/>
    </linearGradient>
  </defs>

  <g transform="translate(287,7)">
    <path d="M12 72 V38 C12 22 25 9 41 9 C57 9 70 22 70 38 V72" stroke="#22D3EE" stroke-width="3" opacity="0.65" stroke-linecap="round"/>
    <path d="M22 72 V40 C22 29 30 21 41 21 C52 21 60 29 60 40 V72" stroke="#14B8A6" stroke-width="2.4" opacity="0.8" stroke-linecap="round"/>
    <path d="M41 76 C37 68 35 62 35 54 C35 46 37 38 41 30 C45 38 47 46 47 54 C47 62 45 68 41 76 Z" fill="url(#pp-main)" opacity="0.95"/>
    <circle cx="41" cy="18" r="3.5" fill="#67E8F9"/>
    <path d="M8 78 Q41 66 74 78" stroke="#2DD4BF" stroke-width="1.8" opacity="0.5" stroke-dasharray="4 4" stroke-linecap="round"/>
  </g>

  <text x="10" y="58" font-family="Cairo, 'Segoe UI', Arial, sans-serif" font-size="50" font-weight="800" fill="#F8FAFC">الرحلة</text>
  <text x="14" y="82" font-family="Cairo, 'Segoe UI', Arial, sans-serif" font-size="13" font-weight="600" fill="#5EEAD4" letter-spacing="0.4">بوابة من الضباب للوضوح</text>
</svg>
