<svg width="360" height="96" viewBox="0 0 360 96" fill="none" xmlns="http://www.w3.org/2000/svg">
  <defs>
    <linearGradient id="tt-main" x1="0" y1="0" x2="1" y2="1">
      <stop offset="0%" stop-color="#38BDF8"/>
      <stop offset="100%" stop-color="#14B8A6"/>
    </linearGradient>
  </defs>

  <g transform="translate(284,7)">
    <path d="M8 66 C14 42 29 24 46 24 C61 24 74 37 76 56" stroke="#22D3EE" stroke-width="3" stroke-linecap="round" opacity="0.85"/>
    <path d="M76 66 C70 42 55 24 38 24 C23 24 10 37 8 56" stroke="#2DD4BF" stroke-width="3" stroke-linecap="round" opacity="0.65"/>
    <circle cx="42" cy="21" r="7" fill="url(#tt-main)"/>
    <rect x="35" y="30" width="14" height="19" rx="6.5" fill="url(#tt-main)" opacity="0.92"/>
    <path d="M42 49 L33 66" stroke="url(#tt-main)" stroke-width="5" stroke-linecap="round"/>
    <path d="M42 49 L51 66" stroke="url(#tt-main)" stroke-width="5" stroke-linecap="round"/>
    <path d="M13 72 Q42 60 71 72" stroke="#67E8F9" stroke-width="1.6" stroke-dasharray="3 3" opacity="0.5"/>
  </g>

  <text x="10" y="58" font-family="Cairo, 'Segoe UI', Arial, sans-serif" font-size="50" font-weight="800" fill="#F8FAFC">الرحلة</text>
  <text x="14" y="82" font-family="Cairo, 'Segoe UI', Arial, sans-serif" font-size="13" font-weight="600" fill="#67E8F9" letter-spacing="0.4">وعي فردي.. وصلات صحية</text>
</svg>
